<svg id="emBv48GAE671" xmlns="http://www.w3.org/2000/svg" xmlns:xlink="http://www.w3.org/1999/xlink" viewBox="0 0 300 300" shape-rendering="geometricPrecision" text-rendering="geometricPrecision" width="300" height="300" style="background-color:transparent"><defs><linearGradient id="emBv48GAE672-fill" x1="-0.015132" y1="1.049904" x2="1.145051" y2="-0.129191" spreadMethod="pad" gradientUnits="objectBoundingBox" gradientTransform="translate(0 0)"><stop id="emBv48GAE672-fill-0" offset="0%" stop-color="#0069ea"/><stop id="emBv48GAE672-fill-1" offset="100%" stop-color="#8b5cf6"/></linearGradient></defs><path d="M199.424,59.4242c0-22.09139,17.90855-40,39.99986-40s39.99986,17.90861,39.99986,40-17.90855,40-39.99986,40-39.99986-17.90861-39.99986-40ZM77.79908,286.66372c-34.49802,0-62.46418-29.09978-62.46418-64.99618v-.00736c0-35.8964,27.96617-64.99618,62.46418-64.99618h5.07178c34.49802,0,62.46418,29.09978,62.46418,64.99618v.00736c0,35.8964-27.96617,64.99618-62.46418,64.99618h-5.07178ZM80.3349,99.42405c0-30.37558,24.6243-54.99985,54.99991-54.99985s54.99991,24.62427,54.99991,54.99985-24.6243,54.99985-54.99991,54.99985-54.99991-24.62427-54.99991-54.99985Z" fill="url(#emBv48GAE672-fill)" stroke-width="0"/><g transform="translate(238.715-12.8501)" mask="url(#emBv48GAE675)"><ellipse rx="23.229" ry="22.2405" transform="translate(163.344 234.514)" fill="#fff" stroke-width="0"/><mask id="emBv48GAE675" mask-type="luminance" x="-150%" y="-150%" height="400%" width="400%"><g transform="translate(.000001 0)"><ellipse rx="23.229" ry="22.2405" transform="translate(144.563 220.181)" fill="#fff" stroke-width="0"/></g></mask></g><rect width="30" height="30" rx="0" ry="0" transform="translate(391.349 184.214)" fill="#d2dbed" stroke-width="0"/></svg>
