<svg id="eczU41Wv6G71" xmlns="http://www.w3.org/2000/svg" xmlns:xlink="http://www.w3.org/1999/xlink" viewBox="0 0 50 50" shape-rendering="geometricPrecision" text-rendering="geometricPrecision" project-id="5d6d8c8f143d4e3e94bb5c30e0b50a16" export-id="52ba1eadd5894fc68055af0f9716cbf5" cached="false" width="50" height="50"><defs><linearGradient id="eczU41Wv6G73-fill" x1="0" y1="0.5" x2="1" y2="0.5" spreadMethod="pad" gradientUnits="objectBoundingBox" gradientTransform="translate(0 0)"><stop id="eczU41Wv6G73-fill-0" offset="0%" stop-color="#0eb2ef"/><stop id="eczU41Wv6G73-fill-1" offset="100%" stop-color="#1091f1"/></linearGradient><linearGradient id="eczU41Wv6G76-fill" x1="0" y1="0.5" x2="1" y2="0.5" spreadMethod="pad" gradientUnits="objectBoundingBox" gradientTransform="translate(0 0)"><stop id="eczU41Wv6G76-fill-0" offset="0%" stop-color="#0eb2ef"/><stop id="eczU41Wv6G76-fill-1" offset="100%" stop-color="#1091f1"/></linearGradient></defs><g transform="matrix(2.08307 0 0 2.09146 0.003134-.10769)"><path d="M14.85,15.452l-.875.874c-.195.195-.195.512,0,.707.098.098.226.146.354.146s.256-.049.354-.146l7.676-7.675c.195-.195.195-.512,0-.707s-.512-.195-.707,0l-.944.944-7.79-7.788.944-.944c.195-.195.195-.512,0-.707s-.512-.195-.707,0L5.479,7.832c-.195.195-.195.512,0,.707.098.098.226.146.354.146s.256-.049.354-.146l.875-.875l3.534,3.534L0.146,21.646c-.195.195-.195.512,0,.707.098.098.226.146.354.146s.256-.049.354-.146L11.303,11.904l3.547,3.547v.001Zm3.109-7.19l-4.442,4.442L9.809,8.996l4.443-4.442L17.96,8.262h-.001Zm-2.402,6.483l-1.333-1.333L18.666,8.97l1.333,1.333-4.443,4.442h.001ZM12.211,2.514l1.333,1.333L9.101,8.289L7.768,6.956L12.21,2.514h.001ZM23.5,23h-.5c0-1.654-1.346-3-3-3h-7c-1.654,0-3,1.346-3,3h-.5c-.276,0-.5.224-.5.5s.224.5.5.5h14c.276,0,.5-.224.5-.5s-.224-.5-.5-.5ZM13,21h7c1.103,0,2,.897,2,2h-11c0-1.103.897-2,2-2Z" transform="matrix(.758283 0 0 0.749157 2.90057 3.01134)" fill="url(#eczU41Wv6G73-fill)"/><ellipse rx="10" ry="10" transform="translate(12 12.0049)" fill="#e8e8e8" stroke-width="0"/><ellipse rx="10" ry="10" transform="translate(12 12.0049)" fill="rgba(241,241,241,0.55)" stroke-width="0"/><path d="M14.85,15.452l-.875.874c-.195.195-.195.512,0,.707.098.098.226.146.354.146s.256-.049.354-.146l7.676-7.675c.195-.195.195-.512,0-.707s-.512-.195-.707,0l-.944.944-7.79-7.788.944-.944c.195-.195.195-.512,0-.707s-.512-.195-.707,0L5.479,7.832c-.195.195-.195.512,0,.707.098.098.226.146.354.146s.256-.049.354-.146l.875-.875l3.534,3.534L0.146,21.646c-.195.195-.195.512,0,.707.098.098.226.146.354.146s.256-.049.354-.146L11.303,11.904l3.547,3.547v.001Zm3.109-7.19l-4.442,4.442L9.809,8.996l4.443-4.442L17.96,8.262h-.001Zm-2.402,6.483l-1.333-1.333L18.666,8.97l1.333,1.333-4.443,4.442h.001ZM12.211,2.514l1.333,1.333L9.101,8.289L7.768,6.956L12.21,2.514h.001ZM23.5,23h-.5c0-1.654-1.346-3-3-3h-7c-1.654,0-3,1.346-3,3h-.5c-.276,0-.5.224-.5.5s.224.5.5.5h14c.276,0,.5-.224.5-.5s-.224-.5-.5-.5ZM13,21h7c1.103,0,2,.897,2,2h-11c0-1.103.897-2,2-2Z" transform="matrix(.758283 0 0 0.749157 2.9007 3.00646)" fill="url(#eczU41Wv6G76-fill)"/></g></svg>
